<?xml version="1.0" encoding="utf-8"?>
<svg version="1.1" xmlns:xlink="http://www.w3.org/1999/xlink" width="12px" height="12px" viewBox="286 61  12 12" xmlns="http://www.w3.org/2000/svg">
  <path d="M 292 61  C 295.36 61  298 63.64  298 67  C 298 70.36  295.36 73  292 73  C 288.64 73  286 70.36  286 67  C 286 63.64  288.64 61  292 61  Z " fill-rule="nonzero" fill="#ffffff" stroke="none" />
  <path d="M 292 61.5  C 295.08 61.5  297.5 63.92  297.5 67  C 297.5 70.08  295.08 72.5  292 72.5  C 288.92 72.5  286.5 70.08  286.5 67  C 286.5 63.92  288.92 61.5  292 61.5  Z " stroke-width="1" stroke="#797979" fill="none" />
  <path d="M 292 70  C 290.32 70  289 68.68  289 67  C 289 65.32  290.32 64  292 64  C 293.68 64  295 65.32  295 67  C 295 68.68  293.68 70  292 70  " fill-rule="nonzero" fill="#797979" stroke="none" />
</svg>