<?xml version="1.0" encoding="utf-8"?>
<svg version="1.1" xmlns:xlink="http://www.w3.org/1999/xlink" width="30px" height="25px" xmlns="http://www.w3.org/2000/svg">
  <g transform="matrix(1 0 0 1 -123 -98 )">
    <path d="M 7.84390243902439 9.61538461538461  L 3.11707317073171 9.61538461538461  L 12.2341463414634 19.6063701923077  L 7.84390243902439 9.61538461538461  Z M 9.89268292682927 10  L 15 21.2139423076923  L 20.1073170731707 10  L 9.89268292682927 10  Z M 2.82439024390244 7.69230769230769  L 7.88780487804878 7.69230769230769  L 10.8731707317073 1.92307692307692  L 7.0390243902439 1.92307692307692  L 2.82439024390244 7.69230769230769  Z M 22.1560975609756 9.61538461538461  L 17.7658536585366 19.6063701923077  L 26.8829268292683 9.61538461538461  L 22.1560975609756 9.61538461538461  Z M 12.9951219512195 1.92307692307692  L 10.009756097561 7.69230769230769  L 19.990243902439 7.69230769230769  L 17.0048780487805 1.92307692307692  L 12.9951219512195 1.92307692307692  Z M 19.1268292682927 1.92307692307692  L 22.1121951219512 7.69230769230769  L 27.1756097560976 7.69230769230769  L 22.9609756097561 1.92307692307692  L 19.1268292682927 1.92307692307692  Z M 23.4292682926829 0  C 23.7512195121951 0  24 0.130208333333331  24.1756097560976 0.390625  L 29.7951219512195 8.08293269230769  C 29.9317073170732 8.26322115384615  29.9951219512195 8.47105368589743  29.9853658536585 8.70643028846154  C 29.9756097560976 8.94180689102564  29.8926829268293 9.14463141025641  29.7365853658537 9.31490384615385  L 15.6878048780488 24.6995192307692  C 15.5121951219512 24.8998397435897  15.2829268292683 25  15 25  C 14.7170731707317 25  14.4878048780488 24.8998397435897  14.3121951219512 24.6995192307692  L 0.263414634146341 9.31490384615385  C 0.107317073170732 9.14463141025641  0.024390243902439 8.94180689102564  0.0146341463414634 8.70643028846154  C 0.0048780487804878 8.47105368589743  0.0682926829268293 8.26322115384615  0.204878048780488 8.08293269230769  L 5.82439024390244 0.390625  C 6 0.130208333333331  6.24878048780488 0  6.57073170731707 0  L 23.4292682926829 0  Z " fill-rule="nonzero" fill="#000000" stroke="none" transform="matrix(1 0 0 1 123 98 )" />
  </g>
</svg>