<?xml version="1.0" encoding="utf-8"?>
<svg version="1.1" xmlns:xlink="http://www.w3.org/1999/xlink" width="14px" height="22px" xmlns="http://www.w3.org/2000/svg">
  <g transform="matrix(1 0 0 1 -20 -106 )">
    <path d="M 13.5381944444444 0.408203125  C 13.8460648148148 0.680338541666663  14 1.00260416666666  14 1.375  L 14 20.625  C 14 20.9973958333333  13.8460648148148 21.3196614583333  13.5381944444444 21.591796875  C 13.2303240740741 21.8639322916667  12.8657407407407 22  12.4444444444444 22  C 12.0231481481481 22  11.6585648148148 21.8639322916667  11.3506944444444 21.591796875  L 0.461805555555556 11.966796875  C 0.153935185185185 11.6946614583333  0 11.3723958333333  0 11  C 0 10.6276041666667  0.153935185185185 10.3053385416667  0.461805555555556 10.033203125  L 11.3506944444444 0.408203125  C 11.6585648148148 0.136067708333332  12.0231481481481 0  12.4444444444444 0  C 12.8657407407407 0  13.2303240740741 0.136067708333332  13.5381944444444 0.408203125  Z " fill-rule="nonzero" fill="#7f7f7f" stroke="none" transform="matrix(1 0 0 1 20 106 )" />
  </g>
</svg>