<?xml version="1.0" encoding="utf-8"?>
<svg version="1.1" xmlns:xlink="http://www.w3.org/1999/xlink" width="14px" height="22px" xmlns="http://www.w3.org/2000/svg">
  <g transform="matrix(1 0 0 1 -516 -106 )">
    <path d="M 13.5381944444444 10.033203125  C 13.8460648148148 10.3053385416667  14 10.6276041666667  14 11  C 14 11.3723958333333  13.8460648148148 11.6946614583333  13.5381944444444 11.966796875  L 2.64930555555556 21.591796875  C 2.34143518518519 21.8639322916667  1.97685185185185 22  1.55555555555556 22  C 1.13425925925926 22  0.769675925925926 21.8639322916667  0.461805555555556 21.591796875  C 0.153935185185185 21.3196614583333  0 20.9973958333333  0 20.625  L 0 1.375  C 0 1.00260416666666  0.153935185185185 0.680338541666663  0.461805555555556 0.408203125  C 0.769675925925926 0.136067708333332  1.13425925925926 0  1.55555555555556 0  C 1.97685185185185 0  2.34143518518519 0.136067708333332  2.64930555555556 0.408203125  L 13.5381944444444 10.033203125  Z " fill-rule="nonzero" fill="#7f7f7f" stroke="none" transform="matrix(1 0 0 1 516 106 )" />
  </g>
</svg>