<?xml version="1.0" encoding="utf-8"?>
<svg version="1.1" xmlns:xlink="http://www.w3.org/1999/xlink" width="53px" height="57px" xmlns="http://www.w3.org/2000/svg">
  <g transform="matrix(1 0 0 1 -470 -179 )">
    <path d="M 4.07692307692308 43.7678571428571  L 4.07692307692308 52.9285714285714  L 13.25 52.9285714285714  L 13.25 43.7678571428571  L 4.07692307692308 43.7678571428571  Z M 15.2884615384615 43  L 15.2884615384615 53  L 25.4807692307692 53  L 25.4807692307692 43  L 15.2884615384615 43  Z M 4 31  L 4 41.7321428571429  L 14 41.7321428571429  L 14 31  L 4 31  Z M 16 31  L 16 41.7321428571429  L 26 41.7321428571429  L 26 31  L 16 31  Z M 4.07692307692308 20.3571428571429  L 4.07692307692308 29.5178571428571  L 13.25 29.5178571428571  L 13.25 20.3571428571429  L 4.07692307692308 20.3571428571429  Z M 27.5192307692308 43  L 27.5192307692308 53  L 37.7115384615385 53  L 37.7115384615385 43  L 27.5192307692308 43  Z M 15.2884615384615 21  L 15.2884615384615 29  L 25.4807692307692 29  L 25.4807692307692 21  L 15.2884615384615 21  Z M 39.75 43.7678571428571  L 39.75 52.9285714285714  L 48.9230769230769 52.9285714285714  L 48.9230769230769 43.7678571428571  L 39.75 43.7678571428571  Z M 27 31  L 27 41  L 37.7115384615385 41  L 37.7115384615385 31  L 27 31  Z M 16.0051081730769 14.9656808035714  C 16.2068309294872 14.7642299107143  16.3076923076923 14.5256696428571  16.3076923076923 14.25  L 16.3076923076923 5.08928571428572  C 16.3076923076923 4.81361607142857  16.2068309294872 4.57505580357143  16.0051081730769 4.37360491071428  C 15.8033854166667 4.17215401785714  15.5645032051282 4.07142857142857  15.2884615384615 4.07142857142857  L 13.25 4.07142857142857  C 12.9739583333333 4.07142857142857  12.7350761217949 4.17215401785714  12.5333533653846 4.37360491071428  C 12.3316306089744 4.57505580357143  12.2307692307692 4.81361607142857  12.2307692307692 5.08928571428572  L 12.2307692307692 14.25  C 12.2307692307692 14.5256696428571  12.3316306089744 14.7642299107143  12.5333533653846 14.9656808035714  C 12.7350761217949 15.1671316964286  12.9739583333333 15.2678571428571  13.25 15.2678571428571  L 15.2884615384615 15.2678571428571  C 15.5645032051282 15.2678571428571  15.8033854166667 15.1671316964286  16.0051081730769 14.9656808035714  Z M 39 31  L 39 41.7321428571429  L 49 41.7321428571429  L 49 31  L 39 31  Z M 27.5192307692308 21  L 27.5192307692308 29  L 37.7115384615385 29  L 37.7115384615385 21  L 27.5192307692308 21  Z M 39.75 20.3571428571429  L 39.75 29.5178571428571  L 48.9230769230769 29.5178571428571  L 48.9230769230769 20.3571428571429  L 39.75 20.3571428571429  Z M 40.4666466346154 14.9656808035714  C 40.6683693910256 14.7642299107143  40.7692307692308 14.5256696428571  40.7692307692308 14.25  L 40.7692307692308 5.08928571428572  C 40.7692307692308 4.81361607142857  40.6683693910256 4.57505580357143  40.4666466346154 4.37360491071428  C 40.2649238782051 4.17215401785714  40.0260416666667 4.07142857142857  39.75 4.07142857142857  L 37.7115384615385 4.07142857142857  C 37.4354967948718 4.07142857142857  37.1966145833333 4.17215401785714  36.9948918269231 4.37360491071428  C 36.7931690705128 4.57505580357143  36.6923076923077 4.81361607142857  36.6923076923077 5.08928571428572  L 36.6923076923077 14.25  C 36.6923076923077 14.5256696428571  36.7931690705128 14.7642299107143  36.9948918269231 14.9656808035714  C 37.1966145833333 15.1671316964286  37.4354967948718 15.2678571428571  37.7115384615385 15.2678571428571  L 39.75 15.2678571428571  C 40.0260416666667 15.2678571428571  40.2649238782051 15.1671316964286  40.4666466346154 14.9656808035714  Z M 51.7896634615385 9.3515625  C 52.5965544871795 10.1573660714286  53 11.1116071428571  53 12.2142857142857  L 53 52.9285714285714  C 53 54.03125  52.5965544871795 54.9854910714286  51.7896634615385 55.7912946428571  C 50.9827724358974 56.5970982142857  50.0272435897436 57  48.9230769230769 57  L 4.07692307692308 57  C 2.97275641025641 57  2.01722756410256 56.5970982142857  1.21033653846154 55.7912946428571  C 0.403445512820513 54.9854910714286  0 54.03125  0 52.9285714285714  L 0 12.2142857142857  C 0 11.1116071428571  0.403445512820513 10.1573660714286  1.21033653846154 9.3515625  C 2.01722756410256 8.54575892857142  2.97275641025641 8.14285714285715  4.07692307692308 8.14285714285715  L 8.15384615384616 8.14285714285715  L 8.15384615384616 5.08928571428572  C 8.15384615384616 3.68973214285715  8.65284455128205 2.49162946428571  9.65084134615384 1.49497767857143  C 10.6488381410256 0.498325892857143  11.8485576923077 0  13.25 0  L 15.2884615384615 0  C 16.6899038461538 0  17.8896233974359 0.498325892857143  18.8876201923077 1.49497767857143  C 19.8856169871795 2.49162946428571  20.3846153846154 3.68973214285715  20.3846153846154 5.08928571428572  L 20.3846153846154 9  L 32.6153846153846 9  L 32.6153846153846 5.08928571428572  C 32.6153846153846 3.68973214285715  33.1143830128205 2.49162946428571  34.1123798076923 1.49497767857143  C 35.1103766025641 0.498325892857143  36.3100961538462 0  37.7115384615385 0  L 39.75 0  C 41.1514423076923 0  42.3511618589744 0.498325892857143  43.3491586538462 1.49497767857143  C 44.347155448718 2.49162946428571  44.8461538461538 3.68973214285715  44.8461538461538 5.08928571428572  L 44.8461538461538 8.14285714285715  L 48.9230769230769 8.14285714285715  C 50.0272435897436 8.14285714285715  50.9827724358974 8.54575892857142  51.7896634615385 9.3515625  Z " fill-rule="nonzero" fill="#aaaaaa" stroke="none" transform="matrix(1 0 0 1 470 179 )" />
  </g>
</svg>