<?xml version="1.0" encoding="utf-8"?>
<svg version="1.1" xmlns:xlink="http://www.w3.org/1999/xlink" width="35px" height="35px" xmlns="http://www.w3.org/2000/svg">
  <g transform="matrix(1 0 0 1 -627 -282 )">
    <path d="M 28.84765625 14.833984375  C 29.12109375 14.560546875  29.2578125 14.21875  29.2578125 13.80859375  C 29.2578125 13.3832465277778  29.12109375 13.0338541666667  28.84765625 12.7604166666667  L 26.7740885416667 10.7096354166667  C 26.4854600694444 10.4210069444444  26.1436631944444 10.2766927083333  25.7486979166667 10.2766927083333  C 25.3537326388889 10.2766927083333  25.0119357638889 10.4210069444444  24.7233072916667 10.7096354166667  L 15.4264322916667 19.9837239583333  L 10.2766927083333 14.833984375  C 9.98806423611111 14.5453559027778  9.64626736111111 14.4010416666667  9.25130208333333 14.4010416666667  C 8.85633680555556 14.4010416666667  8.51453993055556 14.5453559027778  8.22591145833333 14.833984375  L 6.15234375 16.884765625  C 5.87890625 17.158203125  5.7421875 17.5075954861111  5.7421875 17.9329427083333  C 5.7421875 18.3430989583333  5.87890625 18.6848958333333  6.15234375 18.9583333333333  L 14.4010416666667 27.20703125  C 14.6896701388889 27.4956597222222  15.0314670138889 27.6399739583333  15.4264322916667 27.6399739583333  C 15.8365885416667 27.6399739583333  16.1859809027778 27.4956597222222  16.474609375 27.20703125  L 28.84765625 14.833984375  Z M 32.6529947916667 8.7158203125  C 34.2176649305556 11.3970269097222  35 14.3250868055556  35 17.5  C 35 20.6749131944444  34.2176649305556 23.6029730902778  32.6529947916667 26.2841796875  C 31.0883246527778 28.9653862847222  28.9653862847222 31.0883246527778  26.2841796875 32.6529947916667  C 23.6029730902778 34.2176649305556  20.6749131944444 35  17.5 35  C 14.3250868055556 35  11.3970269097222 34.2176649305556  8.7158203125 32.6529947916667  C 6.03461371527778 31.0883246527778  3.91167534722222 28.9653862847222  2.34700520833333 26.2841796875  C 0.782335069444444 23.6029730902778  0 20.6749131944444  0 17.5  C 0 14.3250868055556  0.782335069444444 11.3970269097222  2.34700520833333 8.7158203125  C 3.91167534722222 6.03461371527778  6.03461371527778 3.91167534722222  8.7158203125 2.34700520833333  C 11.3970269097222 0.782335069444441  14.3250868055556 0  17.5 0  C 20.6749131944444 0  23.6029730902778 0.782335069444441  26.2841796875 2.34700520833333  C 28.9653862847222 3.91167534722222  31.0883246527778 6.03461371527778  32.6529947916667 8.7158203125  Z " fill-rule="nonzero" fill="#00d9d9" stroke="none" transform="matrix(1 0 0 1 627 282 )" />
  </g>
</svg>