<?xml version="1.0" encoding="utf-8"?>
<svg version="1.1" xmlns:xlink="http://www.w3.org/1999/xlink" width="12px" height="12px" viewBox="57 569  12 12" xmlns="http://www.w3.org/2000/svg">
  <path d="M 63 569  C 66.36 569  69 571.64  69 575  C 69 578.36  66.36 581  63 581  C 59.64 581  57 578.36  57 575  C 57 571.64  59.64 569  63 569  Z " fill-rule="nonzero" fill="#ffffff" stroke="none" />
  <path d="M 63 569.5  C 66.08 569.5  68.5 571.92  68.5 575  C 68.5 578.08  66.08 580.5  63 580.5  C 59.92 580.5  57.5 578.08  57.5 575  C 57.5 571.92  59.92 569.5  63 569.5  Z " stroke-width="1" stroke="#797979" fill="none" />
  <path d="M 63 578  C 61.32 578  60 576.68  60 575  C 60 573.32  61.32 572  63 572  C 64.68 572  66 573.32  66 575  C 66 576.68  64.68 578  63 578  " fill-rule="nonzero" fill="#797979" stroke="none" />
</svg>