<?xml version="1.0" encoding="utf-8"?>
<svg version="1.1" xmlns:xlink="http://www.w3.org/1999/xlink" width="12px" height="12px" viewBox="57 600  12 12" xmlns="http://www.w3.org/2000/svg">
  <path d="M 63 600  C 66.36 600  69 602.64  69 606  C 69 609.36  66.36 612  63 612  C 59.64 612  57 609.36  57 606  C 57 602.64  59.64 600  63 600  Z " fill-rule="nonzero" fill="#ffffff" stroke="none" />
  <path d="M 63 600.5  C 66.08 600.5  68.5 602.92  68.5 606  C 68.5 609.08  66.08 611.5  63 611.5  C 59.92 611.5  57.5 609.08  57.5 606  C 57.5 602.92  59.92 600.5  63 600.5  Z " stroke-width="1" stroke="#797979" fill="none" />
  <path d="M 63 609  C 61.32 609  60 607.68  60 606  C 60 604.32  61.32 603  63 603  C 64.68 603  66 604.32  66 606  C 66 607.68  64.68 609  63 609  " fill-rule="nonzero" fill="#797979" stroke="none" />
</svg>