<?xml version="1.0" encoding="utf-8"?>
<svg version="1.1" xmlns:xlink="http://www.w3.org/1999/xlink" width="12px" height="12px" viewBox="57 629  12 12" xmlns="http://www.w3.org/2000/svg">
  <path d="M 63 629  C 66.36 629  69 631.64  69 635  C 69 638.36  66.36 641  63 641  C 59.64 641  57 638.36  57 635  C 57 631.64  59.64 629  63 629  Z " fill-rule="nonzero" fill="#ffffff" stroke="none" />
  <path d="M 63 629.5  C 66.08 629.5  68.5 631.92  68.5 635  C 68.5 638.08  66.08 640.5  63 640.5  C 59.92 640.5  57.5 638.08  57.5 635  C 57.5 631.92  59.92 629.5  63 629.5  Z " stroke-width="1" stroke="#797979" fill="none" />
  <path d="M 63 638  C 61.32 638  60 636.68  60 635  C 60 633.32  61.32 632  63 632  C 64.68 632  66 633.32  66 635  C 66 636.68  64.68 638  63 638  " fill-rule="nonzero" fill="#797979" stroke="none" />
</svg>