<?xml version="1.0" encoding="utf-8"?>
<svg version="1.1" xmlns:xlink="http://www.w3.org/1999/xlink" width="70px" height="70px" xmlns="http://www.w3.org/2000/svg">
  <g transform="matrix(1 0 0 1 -20 -17 )">
    <path d="M 55 17  C 74.6 17  90 32.4  90 52  C 90 71.6  74.6 87  55 87  C 35.4 87  20 71.6  20 52  C 20 32.4  35.4 17  55 17  Z " fill-rule="nonzero" fill="#ffffff" stroke="none" />
    <path d="M 55 17.5  C 74.32 17.5  89.5 32.68  89.5 52  C 89.5 71.32  74.32 86.5  55 86.5  C 35.68 86.5  20.5 71.32  20.5 52  C 20.5 32.68  35.68 17.5  55 17.5  Z " stroke-width="1" stroke="#797979" fill="none" />
  </g>
</svg>