<?xml version="1.0" encoding="utf-8"?>
<svg version="1.1" xmlns:xlink="http://www.w3.org/1999/xlink" width="14px" height="23px" xmlns="http://www.w3.org/2000/svg">
  <g transform="matrix(1 0 0 1 -515 -108 )">
    <path d="M 13.7594501718213 10.9699398797595  C 13.9198167239404 11.123580494322  14 11.3002672010688  14 11.5  C 14 11.6997327989312  13.9198167239404 11.876419505678  13.7594501718213 12.0300601202405  L 2.54982817869416 22.7695390781563  C 2.38946162657503 22.9231796927188  2.20504009163803 23  1.99656357388316 23  C 1.78808705612829 23  1.60366552119129 22.9231796927188  1.44329896907216 22.7695390781563  L 0.240549828178694 21.6172344689379  C 0.0801832760595648 21.4635938543754  0 21.2869071476286  0 21.0871743486974  C 0 20.8874415497662  0.0801832760595648 20.7107548430194  0.240549828178694 20.5571142284569  L 9.69415807560137 11.5  L 0.240549828178694 2.44288577154309  C 0.0801832760595648 2.28924515698063  0 2.1125584502338  0 1.91282565130261  C 0 1.71309285237141  0.0801832760595648 1.53640614562458  0.240549828178694 1.38276553106212  L 1.44329896907216 0.230460921843688  C 1.60366552119129 0.0768203072812284  1.78808705612829 0  1.99656357388316 0  C 2.20504009163803 0  2.38946162657503 0.0768203072812284  2.54982817869416 0.230460921843688  L 13.7594501718213 10.9699398797595  Z " fill-rule="nonzero" fill="#aaaaaa" stroke="none" transform="matrix(1 0 0 1 515 108 )" />
  </g>
</svg>