<?xml version="1.0" encoding="utf-8"?>
<svg version="1.1" xmlns:xlink="http://www.w3.org/1999/xlink" width="90px" height="118px" xmlns="http://www.w3.org/2000/svg">
  <g transform="matrix(1 0 0 1 -24 -80 )">
    <path d="M 24 80  L 114 80  L 114 198  L 24 198  L 24 80  " fill-rule="nonzero" fill="#cccccc" stroke="none" />
    <path d="M 30 86  L 108 86  L 108 192  L 30 192  L 30 86  " fill-rule="nonzero" fill="#ffffff" stroke="none" />
    <path d="M 77.55 111.2  C 73.77 111.2  70.8 108.23  70.8 104.45  C 70.8 100.67  73.77 97.7  77.55 97.7  C 81.33 97.7  84.3 100.67  84.3 104.45  C 84.3 108.23  81.33 111.2  77.55 111.2  " fill-rule="nonzero" fill="#cccccc" stroke="none" />
    <path d="M 33 190  L 33 134.45  L 51.25 109.2  L 76.8 129.4  L 91.4 124.35  L 106 129.4  L 106 190  L 33 190  " fill-rule="nonzero" fill="#169bd5" stroke="none" />
  </g>
</svg>